# Made in Blockbench 5.1.4
mtllib oeuf.mtl

o sphere
v 0.4330127018922193 0.75 -0.11602540378443868
v 0 0 0
v 0 1.125 0
v 0.06698729810778065 0.9955127018922194 0.24999999999999994
v 0.11602540378443862 0.75 0.4330127018922193
v 0.13397459621556132 0.43750000000000006 0.49999999999999994
v 0.11602540378443864 0.1875000000000001 0.43301270189221935
v 0.06698729810778065 0.004487298107780646 0.24999999999999994
v 0.18301270189221924 0.9955127018922194 0.18301270189221927
v 0.31698729810778065 0.75 0.31698729810778065
v 0.3660254037844386 0.43750000000000006 0.36602540378443865
v 0.31698729810778065 0.1875000000000001 0.3169872981077807
v 0.18301270189221924 0.004487298107780646 0.18301270189221927
v 0.24999999999999994 0.9955127018922194 0.06698729810778065
v 0.4330127018922193 0.75 0.11602540378443862
v 0.49999999999999994 0.43750000000000006 0.13397459621556132
v 0.43301270189221935 0.1875000000000001 0.11602540378443864
v 0.24999999999999994 0.004487298107780646 0.06698729810778065
v 0.24999999999999994 0.9955127018922194 -0.06698729810778067
v 0.49999999999999994 0.43750000000000006 -0.13397459621556138
v 0.43301270189221935 0.1875000000000001 -0.1160254037844387
v 0.24999999999999994 0.004487298107780646 -0.06698729810778067
v 0.18301270189221927 0.9955127018922194 -0.18301270189221924
v 0.31698729810778065 0.75 -0.31698729810778065
v 0.36602540378443865 0.43750000000000006 -0.3660254037844386
v 0.3169872981077807 0.1875000000000001 -0.31698729810778065
v 0.18301270189221927 0.004487298107780646 -0.18301270189221924
v 0.06698729810778072 0.9955127018922194 -0.2499999999999999
v 0.11602540378443875 0.75 -0.43301270189221924
v 0.1339745962155615 0.43750000000000006 -0.4999999999999999
v 0.11602540378443876 0.1875000000000001 -0.4330127018922193
v 0.06698729810778072 0.004487298107780646 -0.2499999999999999
v -0.06698729810778055 0.9955127018922194 -0.24999999999999997
v -0.11602540378443846 0.75 -0.43301270189221935
v -0.13397459621556113 0.43750000000000006 -0.5
v -0.11602540378443847 0.1875000000000001 -0.4330127018922194
v -0.06698729810778055 0.004487298107780646 -0.24999999999999997
v -0.18301270189221924 0.9955127018922194 -0.1830127018922193
v -0.31698729810778065 0.75 -0.3169872981077807
v -0.3660254037844386 0.43750000000000006 -0.3660254037844387
v -0.31698729810778065 0.1875000000000001 -0.31698729810778076
v -0.18301270189221924 0.004487298107780646 -0.1830127018922193
v -0.24999999999999994 0.9955127018922194 -0.06698729810778062
v -0.4330127018922193 0.75 -0.11602540378443858
v -0.49999999999999994 0.43750000000000006 -0.13397459621556126
v -0.43301270189221935 0.1875000000000001 -0.1160254037844386
v -0.24999999999999994 0.004487298107780646 -0.06698729810778062
v -0.24999999999999997 0.9955127018922194 0.06698729810778054
v -0.43301270189221935 0.75 0.11602540378443843
v -0.5 0.43750000000000006 0.1339745962155611
v -0.4330127018922194 0.1875000000000001 0.11602540378443844
v -0.24999999999999997 0.004487298107780646 0.06698729810778054
v -0.1830127018922193 0.9955127018922194 0.18301270189221922
v -0.3169872981077807 0.75 0.3169872981077806
v -0.3660254037844387 0.43750000000000006 0.36602540378443854
v -0.31698729810778076 0.1875000000000001 0.3169872981077806
v -0.1830127018922193 0.004487298107780646 0.18301270189221922
v -0.06698729810778063 0.9955127018922194 0.24999999999999994
v -0.1160254037844386 0.75 0.4330127018922193
v -0.1339745962155613 0.43750000000000006 0.49999999999999994
v -0.11602540378443861 0.1875000000000001 0.43301270189221935
v -0.06698729810778063 0.004487298107780646 0.24999999999999994
vt 0.547996875 0.5655896437728374
vt 0.5779016149677555 0.5806740004552892
vt 0.53125 0.6359755812728374
vt 0.14199133848673692 0.9962495474575863
vt 0.13838125 0.9188035681253369
vt 0.19602891275829057 0.9252995002952722
vt 0.1752744482391264 1
vt 0.13838125 0.9188035681253369
vt 0.14286875000000002 0.838903568125337
vt 0.20943496950477897 0.8464044732101641
vt 0.19602891275829054 0.9252995002952722
vt 0.14286875000000002 0.838903568125337
vt 0.15457349117817204 0.775106738429305
vt 0.21222115393646257 0.7816026705992403
vt 0.20943496950477897 0.8464044732101641
vt 0.38056875 0.9903884434528665
vt 0.368309375 0.9256821934528665
vt 0.3994818752214872 0.9134303968905708
vt 0.4345607535558582 0.9691678471305623
vt 0.5691920438962375 0.7645313840817258
vt 0.5401843749999999 0.7812761275634503
vt 0.5234375 0.7187667525634505
vt 0.5779016149677555 0.5806740004552892
vt 0.5978084828465582 0.6076099968229455
vt 0.53125 0.6359755812728374
vt 0.04347555176087364 0.71875
vt 0.022721087241709473 0.6440495002952722
vt 0.08036875000000002 0.6375535681253369
vt 0.07675866151326312 0.7149995474575863
vt 0.022721087241709473 0.6440495002952722
vt 0.00931503049522106 0.5651544732101641
vt 0.07588125000000001 0.557653568125337
vt 0.08036875000000002 0.6375535681253369
vt 0.00931503049522106 0.5651544732101641
vt 0.00652884606353743 0.5003526705992403
vt 0.06417650882182797 0.493856738429305
vt 0.07588125000000001 0.557653568125337
vt 0.4345607535558582 0.9691678471305623
vt 0.3994818752214872 0.9134303968905708
vt 0.4240123697482195 0.890625
vt 0.477048540493184 0.9296679975432739
vt 0.5859431816614917 0.7355274072400585
vt 0.5691920438962375 0.7645313840817258
vt 0.5234375 0.7187667525634505
vt 0.5978084828465582 0.6076099968229455
vt 0.6034512529359362 0.640625
vt 0.53125 0.6359755812728374
vt 0.092628125 0.7141082556253369
vt 0.08036875000000002 0.6375535681253369
vt 0.13838125 0.6375535681253369
vt 0.12612187500000002 0.7141082556253369
vt 0.08036875000000002 0.6375535681253369
vt 0.07588125000000001 0.557653568125337
vt 0.14286875000000002 0.557653568125337
vt 0.13838125 0.6375535681253369
vt 0.07588125000000001 0.557653568125337
vt 0.08036875000000002 0.492947318125337
vt 0.13838125 0.492947318125337
vt 0.14286875000000002 0.557653568125337
vt 0.50224375 1
vt 0.514503125 0.9375
vt 0.547996875 0.9375
vt 0.56025625 1
vt 0.4725040171534418 0.518509415550108
vt 0.4924108850322445 0.4915734191824518
vt 0.5390625 0.546875
vt 0.14199133848673692 0.7149995474575863
vt 0.13838125 0.6375535681253369
vt 0.19602891275829057 0.6440495002952722
vt 0.1752744482391264 0.71875
vt 0.13838125 0.6375535681253369
vt 0.14286875000000002 0.557653568125337
vt 0.20943496950477897 0.5651544732101641
vt 0.19602891275829054 0.6440495002952722
vt 0.14286875000000002 0.557653568125337
vt 0.15457349117817204 0.493856738429305
vt 0.21222115393646257 0.5003526705992403
vt 0.20943496950477897 0.5651544732101641
vt 0.444826459506816 0.8515429975432739
vt 0.4978626302517805 0.8125
vt 0.5223931247785127 0.8353053968905708
vt 0.4873142464441418 0.8910428471305623
vt 0.4924108850322445 0.4915734191824518
vt 0.522315625 0.4764890625
vt 0.5390625 0.546875
vt 0.26222555176087364 0.859375
vt 0.24147108724170946 0.7846745002952722
vt 0.29911875 0.7781785681253369
vt 0.2955086615132631 0.8556245474575863
vt 0.24147108724170946 0.7846745002952722
vt 0.22806503049522106 0.7057794732101641
vt 0.29463125 0.698278568125337
vt 0.29911875 0.7781785681253369
vt 0.22806503049522106 0.7057794732101641
vt 0.22527884606353743 0.6409776705992403
vt 0.28292650882182796 0.634481738429305
vt 0.29463125 0.698278568125337
vt 0.4873142464441418 0.8910428471305623
vt 0.5223931247785127 0.8353053968905708
vt 0.5535656250000001 0.8475571934528665
vt 0.54130625 0.9122634434528665
vt 0.5402119335386913 0.656264767278083
vt 0.5692122169162694 0.6730222985128046
vt 0.5234375 0.7187667525634505
vt 0.522315625 0.4764890625
vt 0.5558093749999999 0.4764890625
vt 0.5390625 0.546875
vt 0.311378125 0.8547332556253369
vt 0.29911875 0.7781785681253369
vt 0.35713125 0.7781785681253369
vt 0.34487187500000005 0.8547332556253369
vt 0.29911875 0.7781785681253369
vt 0.29463125 0.698278568125337
vt 0.36161875 0.698278568125337
vt 0.35713125 0.7781785681253369
vt 0.29463125 0.698278568125337
vt 0.29911875 0.633572318125337
vt 0.35713125 0.633572318125337
vt 0.36161875 0.698278568125337
vt 0.54130625 0.9122634434528665
vt 0.5535656250000001 0.8475571934528665
vt 0.5870593749999999 0.8475571934528665
vt 0.59931875 0.9122634434528665
vt 0.5067181867941123 0.65625
vt 0.5402119335386913 0.656264767278083
vt 0.5234375 0.7187667525634504
vt 0.5558093749999999 0.4764890625
vt 0.5857141149677555 0.4915734191824518
vt 0.5390625 0.546875
vt 0.36074133848673695 0.8556245474575863
vt 0.35713125 0.7781785681253369
vt 0.4147789127582906 0.7846745002952722
vt 0.3940244482391264 0.859375
vt 0.35713125 0.7781785681253369
vt 0.36161875 0.698278568125337
vt 0.42818496950477897 0.7057794732101641
vt 0.41477891275829054 0.7846745002952722
vt 0.36161875 0.698278568125337
vt 0.37332349117817204 0.634481738429305
vt 0.43097115393646257 0.6409776705992403
vt 0.42818496950477897 0.7057794732101641
vt 0.59931875 0.9122634434528665
vt 0.5870593749999999 0.8475571934528665
vt 0.6182318752214873 0.8353053968905708
vt 0.6533107535558582 0.8910428471305623
vt 0.47766278308373056 0.6730222985128046
vt 0.5066630664613087 0.656264767278083
vt 0.5234375 0.7187667525634505
vt 0.5857141149677555 0.4915734191824518
vt 0.6056209828465582 0.518509415550108
vt 0.5390625 0.546875
vt 0.27785055176087364 0.609375
vt 0.25709608724170946 0.5346745002952722
vt 0.31474375 0.5281785681253369
vt 0.3111336615132631 0.6056245474575863
vt 0.25709608724170946 0.5346745002952722
vt 0.24369003049522106 0.4557794732101641
vt 0.31025625 0.44827856812533695
vt 0.31474375 0.5281785681253369
vt 0.24369003049522106 0.4557794732101641
vt 0.24090384606353743 0.39097767059924027
vt 0.29855150882182796 0.384481738429305
vt 0.31025625 0.44827856812533695
vt 0.6533107535558582 0.8910428471305623
vt 0.6182318752214873 0.8353053968905708
vt 0.6427623697482194 0.8125
vt 0.695798540493184 0.8515429975432739
vt 0.46092443469928734 0.7020336580539137
vt 0.47766278308373056 0.6730222985128046
vt 0.5234375 0.7187667525634505
vt 0.4590487470640638 0.640625
vt 0.4646915171534418 0.6076099968229455
vt 0.53125 0.6359755812728374
vt 0.327003125 0.6047332556253369
vt 0.31474375 0.5281785681253369
vt 0.37275625 0.5281785681253369
vt 0.36049687500000005 0.6047332556253369
vt 0.31474375 0.5281785681253369
vt 0.31025625 0.44827856812533695
vt 0.37724375 0.44827856812533695
vt 0.37275625 0.5281785681253369
vt 0.31025625 0.44827856812533695
vt 0.31474375 0.383572318125337
vt 0.37275625 0.383572318125337
vt 0.37724375 0.44827856812533695
vt 0.0022437499999999992 0.46875
vt 0.014503124999999999 0.40625
vt 0.04799687500000001 0.40625
vt 0.06025625 0.46875
vt 0.46093181833850827 0.7355274072400585
vt 0.4609244346992874 0.7020336580539137
vt 0.5234375 0.7187667525634505
vt 0.4646915171534418 0.6076099968229455
vt 0.4845983850322445 0.5806740004552892
vt 0.53125 0.6359755812728374
vt 0.37636633848673695 0.6056245474575863
vt 0.37275625 0.5281785681253369
vt 0.4304039127582906 0.5346745002952722
vt 0.4096494482391264 0.609375
vt 0.37275625 0.5281785681253369
vt 0.37724375 0.44827856812533695
vt 0.44380996950477897 0.4557794732101641
vt 0.43040391275829054 0.5346745002952722
vt 0.37724375 0.44827856812533695
vt 0.38894849117817204 0.384481738429305
vt 0.44659615393646257 0.39097767059924027
vt 0.44380996950477897 0.4557794732101641
vt 0.22607645950681596 0.9296679975432739
vt 0.2791126302517805 0.890625
vt 0.3036431247785128 0.9134303968905708
vt 0.2685642464441418 0.9691678471305623
vt 0.47768295610376255 0.7645313840817258
vt 0.46093181833850827 0.7355274072400585
vt 0.5234375 0.7187667525634505
vt 0.4845983850322445 0.5806740004552892
vt 0.514503125 0.5655896437728374
vt 0.53125 0.6359755812728374
vt 0.04347555176087364 1
vt 0.022721087241709473 0.9252995002952722
vt 0.08036875000000002 0.9188035681253369
vt 0.07675866151326312 0.9962495474575863
vt 0.022721087241709473 0.9252995002952722
vt 0.00931503049522106 0.8464044732101641
vt 0.07588125000000001 0.838903568125337
vt 0.08036875000000002 0.9188035681253369
vt 0.00931503049522106 0.8464044732101641
vt 0.00652884606353743 0.7816026705992403
vt 0.06417650882182797 0.775106738429305
vt 0.07588125000000001 0.838903568125337
vt 0.2685642464441418 0.9691678471305623
vt 0.3036431247785128 0.9134303968905708
vt 0.334815625 0.9256821934528665
vt 0.32255625 0.9903884434528665
vt 0.506690625 0.7812761275634503
vt 0.47768295610376255 0.7645313840817258
vt 0.5234375 0.7187667525634505
vt 0.514503125 0.5655896437728374
vt 0.547996875 0.5655896437728374
vt 0.53125 0.6359755812728374
vt 0.092628125 0.9953582556253369
vt 0.08036875000000002 0.9188035681253369
vt 0.13838125 0.9188035681253369
vt 0.12612187500000002 0.9953582556253369
vt 0.08036875000000002 0.9188035681253369
vt 0.07588125000000001 0.838903568125337
vt 0.14286875000000002 0.838903568125337
vt 0.13838125 0.9188035681253369
vt 0.07588125000000001 0.838903568125337
vt 0.08036875000000002 0.774197318125337
vt 0.13838125 0.774197318125337
vt 0.14286875000000002 0.838903568125337
vt 0.32255625 0.9903884434528665
vt 0.334815625 0.9256821934528665
vt 0.368309375 0.9256821934528665
vt 0.38056875 0.9903884434528665
vt 0.5401843749999999 0.7812761275634503
vt 0.506690625 0.7812761275634503
vt 0.5234375 0.7187667525634504
vt 0.5859505653007127 0.7020336580539137
vt 0.5859431816614917 0.7355274072400585
vt 0.5234375 0.7187667525634505
vt 0.5692122169162694 0.6730222985128046
vt 0.5859505653007127 0.7020336580539137
vt 0.5234375 0.7187667525634505
vn 0.22995934920681851 0.8879610300286305 0.39830127650168334
vn 0.40087751494482127 0.5976528022578481 0.6943402234963824
vn 0.4888938298125832 0.20959793101254465 0.8467889527423264
vn 0.48296291314453427 -0.2588190451025205 0.8365163037378079
vn 0.3535533905932741 -0.7071067811865475 0.6123724356957946
vn 0.008973150876212465 -0.9998389521585019 0.01554195322158117
vn 0.39830127650168334 0.8879610300286305 0.22995934920681854
vn 0.6943402234963822 0.5976528022578481 0.4008775149448213
vn 0.8467889527423261 0.2095979310125447 0.4888938298125833
vn 0.8365163037378078 -0.25881904510252074 0.48296291314453427
vn 0.6123724356957945 -0.7071067811865475 0.353553390593274
vn 0.015541953221581174 -0.9998389521585019 0.008973150876212466
vn 0.4599186984136368 0.8879610300286305 0
vn 0.8017550298896425 0.5976528022578481 0
vn 0.9777876596251666 0.20959793101254454 0
vn 0.9659258262890683 -0.2588190451025205 0
vn 0.7071067811865476 -0.7071067811865475 0
vn 0.39830127650168334 0.8879610300286305 -0.22995934920681857
vn 0.6943402234963822 0.5976528022578481 -0.4008775149448214
vn 0.8467889527423264 0.20959793101254462 -0.48889382981258334
vn 0.8365163037378078 -0.2588190451025205 -0.4829629131445344
vn 0.6123724356957945 -0.7071067811865474 -0.3535533905932741
vn 0.2299593492068185 0.8879610300286304 -0.39830127650168334
vn 0.4008775149448214 0.5976528022578481 -0.6943402234963822
vn 0.4888938298125833 0.2095979310125447 -0.8467889527423264
vn 0.4829629131445343 -0.2588190451025208 -0.8365163037378078
vn 0.3535533905932739 -0.7071067811865475 -0.6123724356957947
vn 0.008973150876212465 -0.9998389521585019 -0.015541953221581174
vn 2.85844672903264e-16 0.8879610300286305 -0.4599186984136368
vn 3.906023768985921e-16 0.5976528022578481 -0.8017550298896426
vn 4.051373930485921e-16 0.20959793101254467 -0.9777876596251667
vn 4.621371947209864e-16 -0.25881904510252063 -0.9659258262890684
vn 4.0022255066204975e-16 -0.7071067811865476 -0.7071067811865476
vn 1.1153829517997856e-17 -0.9998389521585019 -0.017946301752424926
vn -0.22995934920681835 0.8879610300286304 -0.39830127650168334
vn -0.400877514944821 0.597652802257848 -0.6943402234963825
vn -0.48889382981258295 0.2095979310125446 -0.8467889527423264
vn -0.482962913144534 -0.25881904510252046 -0.836516303737808
vn -0.3535533905932737 -0.7071067811865474 -0.6123724356957947
vn -0.008973150876212458 -0.9998389521585019 -0.015541953221581174
vn -0.3983012765016833 0.8879610300286304 -0.22995934920681843
vn -0.6943402234963824 0.5976528022578481 -0.40087751494482116
vn -0.8467889527423265 0.2095979310125447 -0.4888938298125831
vn -0.8365163037378078 -0.25881904510252074 -0.48296291314453416
vn -0.6123724356957946 -0.7071067811865476 -0.3535533905932739
vn -0.015541953221581174 -0.9998389521585019 -0.008973150876212463
vn -0.4599186984136368 0.8879610300286304 -9.52815576344214e-17
vn -0.8017550298896426 0.5976528022578482 -1.9530118844929625e-16
vn -0.9777876596251667 0.20959793101254467 -2.0256869652429627e-16
vn -0.9659258262890684 -0.2588190451025206 -2.3106859736049333e-16
vn -0.7071067811865477 -0.7071067811865474 -2.00111275331025e-16
vn -0.017946301752424922 -0.9998389521585019 -3.717943172665954e-18
vn -0.3983012765016833 0.8879610300286304 0.22995934920681835
vn -0.6943402234963826 0.597652802257848 0.40087751494482116
vn -0.8467889527423264 0.2095979310125446 0.48889382981258295
vn -0.836516303737808 -0.2588190451025205 0.48296291314453405
vn -0.6123724356957948 -0.7071067811865475 0.3535533905932738
vn -0.015541953221581174 -0.9998389521585019 0.008973150876212458
vn -0.22995934920681851 0.8879610300286304 0.39830127650168323
vn -0.4008775149448214 0.5976528022578481 0.6943402234963822
vn -0.4888938298125833 0.20959793101254473 0.8467889527423262
vn -0.48296291314453443 -0.25881904510252085 0.8365163037378079
vn -0.353553390593274 -0.7071067811865475 0.6123724356957946
vn -0.008973150876212466 -0.9998389521585019 0.01554195322158117
vn 0 0.8879610300286305 0.4599186984136368
vn 0 0.5976528022578481 0.8017550298896426
vn 0 0.20959793101254456 0.9777876596251667
vn 0 -0.2588190451025205 0.9659258262890683
vn 0 -0.7071067811865474 0.7071067811865477
vn 0 -0.9998389521585019 0.017946301752424922
vn 0.017946301752424922 -0.9998389521585019 0
vn 0.01554195322158117 -0.9998389521585019 -0.008973150876212466
usemtl m_b232458a-9409-5b56-72ac-1db96ac2f857
f 4/1/1 9/2/1 3/3/1
f 4/4/2 5/5/2 10/6/2 9/7/2
f 5/8/3 6/9/3 11/10/3 10/11/3
f 6/12/4 7/13/4 12/14/4 11/15/4
f 7/16/5 8/17/5 13/18/5 12/19/5
f 13/20/6 8/21/6 2/22/6
f 9/23/7 14/24/7 3/25/7
f 9/26/8 10/27/8 15/28/8 14/29/8
f 10/30/9 11/31/9 16/32/9 15/33/9
f 11/34/10 12/35/10 17/36/10 16/37/10
f 12/38/11 13/39/11 18/40/11 17/41/11
f 18/42/12 13/43/12 2/44/12
f 14/45/13 19/46/13 3/47/13
f 14/48/14 15/49/14 1/50/14 19/51/14
f 15/52/15 16/53/15 20/54/15 1/55/15
f 16/56/16 17/57/16 21/58/16 20/59/16
f 17/60/17 18/61/17 22/62/17 21/63/17
f 19/64/18 23/65/18 3/66/18
f 19/67/19 1/68/19 24/69/19 23/70/19
f 1/71/20 20/72/20 25/73/20 24/74/20
f 20/75/21 21/76/21 26/77/21 25/78/21
f 21/79/22 22/80/22 27/81/22 26/82/22
f 23/83/23 28/84/23 3/85/23
f 23/86/24 24/87/24 29/88/24 28/89/24
f 24/90/25 25/91/25 30/92/25 29/93/25
f 25/94/26 26/95/26 31/96/26 30/97/26
f 26/98/27 27/99/27 32/100/27 31/101/27
f 32/102/28 27/103/28 2/104/28
f 28/105/29 33/106/29 3/107/29
f 28/108/30 29/109/30 34/110/30 33/111/30
f 29/112/31 30/113/31 35/114/31 34/115/31
f 30/116/32 31/117/32 36/118/32 35/119/32
f 31/120/33 32/121/33 37/122/33 36/123/33
f 37/124/34 32/125/34 2/126/34
f 33/127/35 38/128/35 3/129/35
f 33/130/36 34/131/36 39/132/36 38/133/36
f 34/134/37 35/135/37 40/136/37 39/137/37
f 35/138/38 36/139/38 41/140/38 40/141/38
f 36/142/39 37/143/39 42/144/39 41/145/39
f 42/146/40 37/147/40 2/148/40
f 38/149/41 43/150/41 3/151/41
f 38/152/42 39/153/42 44/154/42 43/155/42
f 39/156/43 40/157/43 45/158/43 44/159/43
f 40/160/44 41/161/44 46/162/44 45/163/44
f 41/164/45 42/165/45 47/166/45 46/167/45
f 47/168/46 42/169/46 2/170/46
f 43/171/47 48/172/47 3/173/47
f 43/174/48 44/175/48 49/176/48 48/177/48
f 44/178/49 45/179/49 50/180/49 49/181/49
f 45/182/50 46/183/50 51/184/50 50/185/50
f 46/186/51 47/187/51 52/188/51 51/189/51
f 52/190/52 47/191/52 2/192/52
f 48/193/53 53/194/53 3/195/53
f 48/196/54 49/197/54 54/198/54 53/199/54
f 49/200/55 50/201/55 55/202/55 54/203/55
f 50/204/56 51/205/56 56/206/56 55/207/56
f 51/208/57 52/209/57 57/210/57 56/211/57
f 57/212/58 52/213/58 2/214/58
f 53/215/59 58/216/59 3/217/59
f 53/218/60 54/219/60 59/220/60 58/221/60
f 54/222/61 55/223/61 60/224/61 59/225/61
f 55/226/62 56/227/62 61/228/62 60/229/62
f 56/230/63 57/231/63 62/232/63 61/233/63
f 62/234/64 57/235/64 2/236/64
f 58/237/65 4/238/65 3/239/65
f 58/240/66 59/241/66 5/242/66 4/243/66
f 59/244/67 60/245/67 6/246/67 5/247/67
f 60/248/68 61/249/68 7/250/68 6/251/68
f 61/252/69 62/253/69 8/254/69 7/255/69
f 8/256/70 62/257/70 2/258/70
f 22/259/71 18/260/71 2/261/71
f 27/262/72 22/263/72 2/264/72